<mxfile host="app.diagrams.net" agent="Mozilla/5.0 (Windows NT 10.0; Win64; x64; rv:134.0) Gecko/20100101 Firefox/134.0" version="26.0.10">
  <diagram name="PÃ¡gina-1" id="EOr9GwJosVuLc8KGh8XC">
    <mxGraphModel dx="2606" dy="1160" grid="1" gridSize="10" guides="1" tooltips="1" connect="1" arrows="1" fold="1" page="0" pageScale="1" pageWidth="827" pageHeight="1169" math="0" shadow="0">
      <root>
        <mxCell id="0" />
        <mxCell id="1" parent="0" />
        <mxCell id="1_41IAmu8DSidC9TDrWD-1" value="W0" style="rounded=0;whiteSpace=wrap;html=1;fillColor=#f5f5f5;fontColor=#333333;strokeColor=#666666;" vertex="1" parent="1">
          <mxGeometry x="-40" y="160" width="120" height="20" as="geometry" />
        </mxCell>
        <mxCell id="1_41IAmu8DSidC9TDrWD-2" value="W1" style="rounded=0;whiteSpace=wrap;html=1;fillColor=#f5f5f5;fontColor=#333333;strokeColor=#666666;" vertex="1" parent="1">
          <mxGeometry x="-40" y="180" width="120" height="20" as="geometry" />
        </mxCell>
        <mxCell id="1_41IAmu8DSidC9TDrWD-3" value="W2" style="rounded=0;whiteSpace=wrap;html=1;fillColor=#f5f5f5;fontColor=#333333;strokeColor=#666666;" vertex="1" parent="1">
          <mxGeometry x="-40" y="200" width="120" height="20" as="geometry" />
        </mxCell>
        <mxCell id="1_41IAmu8DSidC9TDrWD-5" value="W14" style="rounded=0;whiteSpace=wrap;html=1;fillColor=#f5f5f5;fontColor=#333333;strokeColor=#666666;" vertex="1" parent="1">
          <mxGeometry x="-40" y="250" width="120" height="20" as="geometry" />
        </mxCell>
        <mxCell id="1_41IAmu8DSidC9TDrWD-6" value="W15" style="rounded=0;whiteSpace=wrap;html=1;fillColor=#f5f5f5;fontColor=#333333;strokeColor=#666666;" vertex="1" parent="1">
          <mxGeometry x="-40" y="270" width="120" height="20" as="geometry" />
        </mxCell>
        <mxCell id="1_41IAmu8DSidC9TDrWD-7" value="W16" style="rounded=0;whiteSpace=wrap;html=1;" vertex="1" parent="1">
          <mxGeometry x="-40" y="290" width="120" height="20" as="geometry" />
        </mxCell>
        <mxCell id="1_41IAmu8DSidC9TDrWD-8" value="W17" style="rounded=0;whiteSpace=wrap;html=1;" vertex="1" parent="1">
          <mxGeometry x="-40" y="310" width="120" height="20" as="geometry" />
        </mxCell>
        <mxCell id="1_41IAmu8DSidC9TDrWD-9" value="W18" style="rounded=0;whiteSpace=wrap;html=1;" vertex="1" parent="1">
          <mxGeometry x="-40" y="330" width="120" height="20" as="geometry" />
        </mxCell>
        <mxCell id="1_41IAmu8DSidC9TDrWD-10" value="W63" style="rounded=0;whiteSpace=wrap;html=1;" vertex="1" parent="1">
          <mxGeometry x="-40" y="420" width="120" height="20" as="geometry" />
        </mxCell>
        <mxCell id="1_41IAmu8DSidC9TDrWD-11" value="W62" style="rounded=0;whiteSpace=wrap;html=1;" vertex="1" parent="1">
          <mxGeometry x="-40" y="400" width="120" height="20" as="geometry" />
        </mxCell>
        <mxCell id="1_41IAmu8DSidC9TDrWD-12" value="Round1" style="rounded=0;whiteSpace=wrap;html=1;" vertex="1" parent="1">
          <mxGeometry x="120" y="310" width="120" height="20" as="geometry" />
        </mxCell>
        <mxCell id="1_41IAmu8DSidC9TDrWD-13" value="Round2" style="rounded=0;whiteSpace=wrap;html=1;" vertex="1" parent="1">
          <mxGeometry x="120" y="330" width="120" height="20" as="geometry" />
        </mxCell>
        <mxCell id="1_41IAmu8DSidC9TDrWD-14" value="Round3" style="rounded=0;whiteSpace=wrap;html=1;" vertex="1" parent="1">
          <mxGeometry x="120" y="350" width="120" height="20" as="geometry" />
        </mxCell>
        <mxCell id="1_41IAmu8DSidC9TDrWD-15" value="W19" style="rounded=0;whiteSpace=wrap;html=1;" vertex="1" parent="1">
          <mxGeometry x="-40" y="350" width="120" height="20" as="geometry" />
        </mxCell>
        <mxCell id="1_41IAmu8DSidC9TDrWD-16" value="Round0" style="rounded=0;whiteSpace=wrap;html=1;" vertex="1" parent="1">
          <mxGeometry x="120" y="290" width="120" height="20" as="geometry" />
        </mxCell>
        <mxCell id="1_41IAmu8DSidC9TDrWD-17" value="Round47" style="rounded=0;whiteSpace=wrap;html=1;" vertex="1" parent="1">
          <mxGeometry x="120" y="400" width="120" height="20" as="geometry" />
        </mxCell>
        <mxCell id="1_41IAmu8DSidC9TDrWD-18" value="Round48" style="rounded=0;whiteSpace=wrap;html=1;" vertex="1" parent="1">
          <mxGeometry x="120" y="420" width="120" height="20" as="geometry" />
        </mxCell>
        <mxCell id="1_41IAmu8DSidC9TDrWD-19" value="Round49" style="rounded=0;whiteSpace=wrap;html=1;" vertex="1" parent="1">
          <mxGeometry x="120" y="440" width="120" height="20" as="geometry" />
        </mxCell>
        <mxCell id="1_41IAmu8DSidC9TDrWD-21" value="Round61" style="rounded=0;whiteSpace=wrap;html=1;" vertex="1" parent="1">
          <mxGeometry x="120" y="510" width="120" height="20" as="geometry" />
        </mxCell>
        <mxCell id="1_41IAmu8DSidC9TDrWD-22" value="Round62" style="rounded=0;whiteSpace=wrap;html=1;" vertex="1" parent="1">
          <mxGeometry x="120" y="530" width="120" height="20" as="geometry" />
        </mxCell>
        <mxCell id="1_41IAmu8DSidC9TDrWD-23" value="Round63" style="rounded=0;whiteSpace=wrap;html=1;" vertex="1" parent="1">
          <mxGeometry x="120" y="550" width="120" height="20" as="geometry" />
        </mxCell>
        <mxCell id="1_41IAmu8DSidC9TDrWD-24" value="" style="endArrow=classic;html=1;rounded=0;" edge="1" parent="1">
          <mxGeometry width="50" height="50" relative="1" as="geometry">
            <mxPoint x="-120" y="290" as="sourcePoint" />
            <mxPoint x="-70" y="290" as="targetPoint" />
          </mxGeometry>
        </mxCell>
        <mxCell id="1_41IAmu8DSidC9TDrWD-25" value="cycle 0" style="text;html=1;align=center;verticalAlign=middle;whiteSpace=wrap;rounded=0;" vertex="1" parent="1">
          <mxGeometry x="-180" y="280" width="60" height="20" as="geometry" />
        </mxCell>
        <mxCell id="1_41IAmu8DSidC9TDrWD-28" value="" style="endArrow=classic;html=1;rounded=0;" edge="1" parent="1">
          <mxGeometry width="50" height="50" relative="1" as="geometry">
            <mxPoint x="-120" y="440" as="sourcePoint" />
            <mxPoint x="-70" y="440" as="targetPoint" />
          </mxGeometry>
        </mxCell>
        <mxCell id="1_41IAmu8DSidC9TDrWD-29" value="cycle 48" style="text;html=1;align=center;verticalAlign=middle;whiteSpace=wrap;rounded=0;" vertex="1" parent="1">
          <mxGeometry x="-180" y="430" width="60" height="20" as="geometry" />
        </mxCell>
        <mxCell id="1_41IAmu8DSidC9TDrWD-30" value="Round64" style="rounded=0;whiteSpace=wrap;html=1;" vertex="1" parent="1">
          <mxGeometry x="120" y="570" width="120" height="20" as="geometry" />
        </mxCell>
        <mxCell id="1_41IAmu8DSidC9TDrWD-31" value="Round65" style="rounded=0;whiteSpace=wrap;html=1;fillColor=#dae8fc;strokeColor=#6c8ebf;" vertex="1" parent="1">
          <mxGeometry x="120" y="600" width="120" height="20" as="geometry" />
        </mxCell>
        <mxCell id="1_41IAmu8DSidC9TDrWD-32" value="Round66" style="rounded=0;whiteSpace=wrap;html=1;fillColor=#dae8fc;strokeColor=#6c8ebf;" vertex="1" parent="1">
          <mxGeometry x="120" y="620" width="120" height="20" as="geometry" />
        </mxCell>
        <mxCell id="1_41IAmu8DSidC9TDrWD-33" value="Round67" style="rounded=0;whiteSpace=wrap;html=1;fillColor=#dae8fc;strokeColor=#6c8ebf;" vertex="1" parent="1">
          <mxGeometry x="120" y="640" width="120" height="20" as="geometry" />
        </mxCell>
        <mxCell id="1_41IAmu8DSidC9TDrWD-36" value="Round70" style="rounded=0;whiteSpace=wrap;html=1;fillColor=#dae8fc;strokeColor=#6c8ebf;" vertex="1" parent="1">
          <mxGeometry x="120" y="681" width="120" height="20" as="geometry" />
        </mxCell>
        <mxCell id="1_41IAmu8DSidC9TDrWD-37" value="Round71" style="rounded=0;whiteSpace=wrap;html=1;fillColor=#dae8fc;strokeColor=#6c8ebf;" vertex="1" parent="1">
          <mxGeometry x="120" y="701" width="120" height="20" as="geometry" />
        </mxCell>
        <mxCell id="1_41IAmu8DSidC9TDrWD-38" value="Round72" style="rounded=0;whiteSpace=wrap;html=1;fillColor=#dae8fc;strokeColor=#6c8ebf;" vertex="1" parent="1">
          <mxGeometry x="120" y="721" width="120" height="20" as="geometry" />
        </mxCell>
        <mxCell id="1_41IAmu8DSidC9TDrWD-39" value="" style="endArrow=classic;html=1;rounded=0;" edge="1" parent="1">
          <mxGeometry width="50" height="50" relative="1" as="geometry">
            <mxPoint x="-120" y="590" as="sourcePoint" />
            <mxPoint x="-70" y="590" as="targetPoint" />
          </mxGeometry>
        </mxCell>
        <mxCell id="1_41IAmu8DSidC9TDrWD-40" value="cycle 64" style="text;html=1;align=center;verticalAlign=middle;whiteSpace=wrap;rounded=0;" vertex="1" parent="1">
          <mxGeometry x="-180" y="580" width="60" height="20" as="geometry" />
        </mxCell>
        <mxCell id="1_41IAmu8DSidC9TDrWD-41" value="" style="shape=curlyBracket;whiteSpace=wrap;html=1;rounded=1;labelPosition=left;verticalLabelPosition=middle;align=right;verticalAlign=middle;" vertex="1" parent="1">
          <mxGeometry x="-110" y="160" width="20" height="120" as="geometry" />
        </mxCell>
        <mxCell id="1_41IAmu8DSidC9TDrWD-42" value="&lt;div&gt;Receiving&lt;/div&gt;&lt;div&gt;AXI4 Stream&lt;br&gt;&lt;/div&gt;" style="text;html=1;align=center;verticalAlign=middle;whiteSpace=wrap;rounded=0;" vertex="1" parent="1">
          <mxGeometry x="-190" y="210" width="70" height="20" as="geometry" />
        </mxCell>
        <mxCell id="1_41IAmu8DSidC9TDrWD-43" value="" style="shape=curlyBracket;whiteSpace=wrap;html=1;rounded=1;labelPosition=left;verticalLabelPosition=middle;align=right;verticalAlign=middle;" vertex="1" parent="1">
          <mxGeometry x="-110" y="610" width="20" height="120" as="geometry" />
        </mxCell>
        <mxCell id="1_41IAmu8DSidC9TDrWD-44" value="Sending AXI4 Stream" style="text;html=1;align=center;verticalAlign=middle;whiteSpace=wrap;rounded=0;" vertex="1" parent="1">
          <mxGeometry x="-190" y="661" width="70" height="20" as="geometry" />
        </mxCell>
        <mxCell id="1_41IAmu8DSidC9TDrWD-45" value="W0" style="rounded=0;whiteSpace=wrap;html=1;fillColor=#f5f5f5;fontColor=#333333;strokeColor=#666666;" vertex="1" parent="1">
          <mxGeometry x="720" y="149.5" width="120" height="20" as="geometry" />
        </mxCell>
        <mxCell id="1_41IAmu8DSidC9TDrWD-46" value="W1" style="rounded=0;whiteSpace=wrap;html=1;fillColor=#f5f5f5;fontColor=#333333;strokeColor=#666666;" vertex="1" parent="1">
          <mxGeometry x="720" y="169.5" width="120" height="20" as="geometry" />
        </mxCell>
        <mxCell id="1_41IAmu8DSidC9TDrWD-47" value="W2" style="rounded=0;whiteSpace=wrap;html=1;fillColor=#f5f5f5;fontColor=#333333;strokeColor=#666666;" vertex="1" parent="1">
          <mxGeometry x="720" y="189.5" width="120" height="20" as="geometry" />
        </mxCell>
        <mxCell id="1_41IAmu8DSidC9TDrWD-48" value="W14" style="rounded=0;whiteSpace=wrap;html=1;fillColor=#f5f5f5;fontColor=#333333;strokeColor=#666666;" vertex="1" parent="1">
          <mxGeometry x="720" y="239.5" width="120" height="20" as="geometry" />
        </mxCell>
        <mxCell id="1_41IAmu8DSidC9TDrWD-49" value="W15" style="rounded=0;whiteSpace=wrap;html=1;fillColor=#f5f5f5;fontColor=#333333;strokeColor=#666666;" vertex="1" parent="1">
          <mxGeometry x="720" y="259.5" width="120" height="20" as="geometry" />
        </mxCell>
        <mxCell id="1_41IAmu8DSidC9TDrWD-50" value="W16" style="rounded=0;whiteSpace=wrap;html=1;" vertex="1" parent="1">
          <mxGeometry x="720" y="279.5" width="120" height="20" as="geometry" />
        </mxCell>
        <mxCell id="1_41IAmu8DSidC9TDrWD-51" value="W17" style="rounded=0;whiteSpace=wrap;html=1;" vertex="1" parent="1">
          <mxGeometry x="720" y="299.5" width="120" height="20" as="geometry" />
        </mxCell>
        <mxCell id="1_41IAmu8DSidC9TDrWD-52" value="W18" style="rounded=0;whiteSpace=wrap;html=1;" vertex="1" parent="1">
          <mxGeometry x="720" y="319.5" width="120" height="20" as="geometry" />
        </mxCell>
        <mxCell id="1_41IAmu8DSidC9TDrWD-53" value="W63" style="rounded=0;whiteSpace=wrap;html=1;" vertex="1" parent="1">
          <mxGeometry x="720" y="409.5" width="120" height="20" as="geometry" />
        </mxCell>
        <mxCell id="1_41IAmu8DSidC9TDrWD-54" value="W62" style="rounded=0;whiteSpace=wrap;html=1;" vertex="1" parent="1">
          <mxGeometry x="720" y="389.5" width="120" height="20" as="geometry" />
        </mxCell>
        <mxCell id="1_41IAmu8DSidC9TDrWD-55" value="Round1" style="rounded=0;whiteSpace=wrap;html=1;" vertex="1" parent="1">
          <mxGeometry x="720" y="460" width="120" height="20" as="geometry" />
        </mxCell>
        <mxCell id="1_41IAmu8DSidC9TDrWD-56" value="Round2" style="rounded=0;whiteSpace=wrap;html=1;" vertex="1" parent="1">
          <mxGeometry x="720" y="480" width="120" height="20" as="geometry" />
        </mxCell>
        <mxCell id="1_41IAmu8DSidC9TDrWD-57" value="Round3" style="rounded=0;whiteSpace=wrap;html=1;" vertex="1" parent="1">
          <mxGeometry x="720" y="500" width="120" height="20" as="geometry" />
        </mxCell>
        <mxCell id="1_41IAmu8DSidC9TDrWD-58" value="W19" style="rounded=0;whiteSpace=wrap;html=1;" vertex="1" parent="1">
          <mxGeometry x="720" y="339.5" width="120" height="20" as="geometry" />
        </mxCell>
        <mxCell id="1_41IAmu8DSidC9TDrWD-59" value="Round0" style="rounded=0;whiteSpace=wrap;html=1;" vertex="1" parent="1">
          <mxGeometry x="720" y="440" width="120" height="20" as="geometry" />
        </mxCell>
        <mxCell id="1_41IAmu8DSidC9TDrWD-60" value="Round47" style="rounded=0;whiteSpace=wrap;html=1;" vertex="1" parent="1">
          <mxGeometry x="720" y="550" width="120" height="20" as="geometry" />
        </mxCell>
        <mxCell id="1_41IAmu8DSidC9TDrWD-61" value="Round48" style="rounded=0;whiteSpace=wrap;html=1;" vertex="1" parent="1">
          <mxGeometry x="720" y="570" width="120" height="20" as="geometry" />
        </mxCell>
        <mxCell id="1_41IAmu8DSidC9TDrWD-62" value="Round49" style="rounded=0;whiteSpace=wrap;html=1;" vertex="1" parent="1">
          <mxGeometry x="720" y="590" width="120" height="20" as="geometry" />
        </mxCell>
        <mxCell id="1_41IAmu8DSidC9TDrWD-63" value="Round61" style="rounded=0;whiteSpace=wrap;html=1;" vertex="1" parent="1">
          <mxGeometry x="720" y="660" width="120" height="20" as="geometry" />
        </mxCell>
        <mxCell id="1_41IAmu8DSidC9TDrWD-64" value="Round62" style="rounded=0;whiteSpace=wrap;html=1;" vertex="1" parent="1">
          <mxGeometry x="720" y="680" width="120" height="20" as="geometry" />
        </mxCell>
        <mxCell id="1_41IAmu8DSidC9TDrWD-65" value="Round63" style="rounded=0;whiteSpace=wrap;html=1;" vertex="1" parent="1">
          <mxGeometry x="720" y="700" width="120" height="20" as="geometry" />
        </mxCell>
        <mxCell id="1_41IAmu8DSidC9TDrWD-66" value="" style="endArrow=classic;html=1;rounded=0;" edge="1" parent="1">
          <mxGeometry width="50" height="50" relative="1" as="geometry">
            <mxPoint x="640" y="279.5" as="sourcePoint" />
            <mxPoint x="690" y="279.5" as="targetPoint" />
          </mxGeometry>
        </mxCell>
        <mxCell id="1_41IAmu8DSidC9TDrWD-67" value="cycle 0" style="text;html=1;align=center;verticalAlign=middle;whiteSpace=wrap;rounded=0;" vertex="1" parent="1">
          <mxGeometry x="580" y="269.5" width="60" height="20" as="geometry" />
        </mxCell>
        <mxCell id="1_41IAmu8DSidC9TDrWD-68" value="" style="endArrow=classic;html=1;rounded=0;" edge="1" parent="1">
          <mxGeometry width="50" height="50" relative="1" as="geometry">
            <mxPoint x="640" y="429.5" as="sourcePoint" />
            <mxPoint x="690" y="429.5" as="targetPoint" />
          </mxGeometry>
        </mxCell>
        <mxCell id="1_41IAmu8DSidC9TDrWD-69" value="cycle 48" style="text;html=1;align=center;verticalAlign=middle;whiteSpace=wrap;rounded=0;" vertex="1" parent="1">
          <mxGeometry x="580" y="419.5" width="60" height="20" as="geometry" />
        </mxCell>
        <mxCell id="1_41IAmu8DSidC9TDrWD-70" value="Round64" style="rounded=0;whiteSpace=wrap;html=1;" vertex="1" parent="1">
          <mxGeometry x="720" y="720" width="120" height="20" as="geometry" />
        </mxCell>
        <mxCell id="1_41IAmu8DSidC9TDrWD-71" value="Round65" style="rounded=0;whiteSpace=wrap;html=1;fillColor=#dae8fc;strokeColor=#6c8ebf;" vertex="1" parent="1">
          <mxGeometry x="720" y="750" width="120" height="20" as="geometry" />
        </mxCell>
        <mxCell id="1_41IAmu8DSidC9TDrWD-72" value="Round66" style="rounded=0;whiteSpace=wrap;html=1;fillColor=#dae8fc;strokeColor=#6c8ebf;" vertex="1" parent="1">
          <mxGeometry x="720" y="770" width="120" height="20" as="geometry" />
        </mxCell>
        <mxCell id="1_41IAmu8DSidC9TDrWD-73" value="Round67" style="rounded=0;whiteSpace=wrap;html=1;fillColor=#dae8fc;strokeColor=#6c8ebf;" vertex="1" parent="1">
          <mxGeometry x="720" y="790" width="120" height="20" as="geometry" />
        </mxCell>
        <mxCell id="1_41IAmu8DSidC9TDrWD-74" value="Round70" style="rounded=0;whiteSpace=wrap;html=1;fillColor=#dae8fc;strokeColor=#6c8ebf;" vertex="1" parent="1">
          <mxGeometry x="720" y="831" width="120" height="20" as="geometry" />
        </mxCell>
        <mxCell id="1_41IAmu8DSidC9TDrWD-75" value="Round71" style="rounded=0;whiteSpace=wrap;html=1;fillColor=#dae8fc;strokeColor=#6c8ebf;" vertex="1" parent="1">
          <mxGeometry x="720" y="851" width="120" height="20" as="geometry" />
        </mxCell>
        <mxCell id="1_41IAmu8DSidC9TDrWD-76" value="Round72" style="rounded=0;whiteSpace=wrap;html=1;fillColor=#dae8fc;strokeColor=#6c8ebf;" vertex="1" parent="1">
          <mxGeometry x="720" y="871" width="120" height="20" as="geometry" />
        </mxCell>
        <mxCell id="1_41IAmu8DSidC9TDrWD-77" value="" style="endArrow=classic;html=1;rounded=0;" edge="1" parent="1">
          <mxGeometry width="50" height="50" relative="1" as="geometry">
            <mxPoint x="640" y="740" as="sourcePoint" />
            <mxPoint x="690" y="740" as="targetPoint" />
          </mxGeometry>
        </mxCell>
        <mxCell id="1_41IAmu8DSidC9TDrWD-78" value="cycle 112" style="text;html=1;align=center;verticalAlign=middle;whiteSpace=wrap;rounded=0;" vertex="1" parent="1">
          <mxGeometry x="580" y="730" width="60" height="20" as="geometry" />
        </mxCell>
        <mxCell id="1_41IAmu8DSidC9TDrWD-79" value="" style="shape=curlyBracket;whiteSpace=wrap;html=1;rounded=1;labelPosition=left;verticalLabelPosition=middle;align=right;verticalAlign=middle;" vertex="1" parent="1">
          <mxGeometry x="650" y="149.5" width="20" height="120" as="geometry" />
        </mxCell>
        <mxCell id="1_41IAmu8DSidC9TDrWD-80" value="&lt;div&gt;Receiving&lt;/div&gt;&lt;div&gt;AXI4 Stream&lt;br&gt;&lt;/div&gt;" style="text;html=1;align=center;verticalAlign=middle;whiteSpace=wrap;rounded=0;" vertex="1" parent="1">
          <mxGeometry x="570" y="199.5" width="70" height="20" as="geometry" />
        </mxCell>
        <mxCell id="1_41IAmu8DSidC9TDrWD-81" value="" style="shape=curlyBracket;whiteSpace=wrap;html=1;rounded=1;labelPosition=left;verticalLabelPosition=middle;align=right;verticalAlign=middle;" vertex="1" parent="1">
          <mxGeometry x="650" y="760" width="20" height="120" as="geometry" />
        </mxCell>
        <mxCell id="1_41IAmu8DSidC9TDrWD-82" value="Sending AXI4 Stream" style="text;html=1;align=center;verticalAlign=middle;whiteSpace=wrap;rounded=0;" vertex="1" parent="1">
          <mxGeometry x="570" y="812" width="70" height="20" as="geometry" />
        </mxCell>
        <mxCell id="1_41IAmu8DSidC9TDrWD-83" value="" style="endArrow=classic;html=1;rounded=0;" edge="1" parent="1">
          <mxGeometry width="50" height="50" relative="1" as="geometry">
            <mxPoint x="640" y="901" as="sourcePoint" />
            <mxPoint x="690" y="901" as="targetPoint" />
          </mxGeometry>
        </mxCell>
        <mxCell id="1_41IAmu8DSidC9TDrWD-84" value="cycle 120" style="text;html=1;align=center;verticalAlign=middle;whiteSpace=wrap;rounded=0;" vertex="1" parent="1">
          <mxGeometry x="580" y="891" width="60" height="20" as="geometry" />
        </mxCell>
        <mxCell id="1_41IAmu8DSidC9TDrWD-85" value="" style="endArrow=classic;html=1;rounded=0;" edge="1" parent="1">
          <mxGeometry width="50" height="50" relative="1" as="geometry">
            <mxPoint x="-120" y="751" as="sourcePoint" />
            <mxPoint x="-70" y="751" as="targetPoint" />
          </mxGeometry>
        </mxCell>
        <mxCell id="1_41IAmu8DSidC9TDrWD-86" value="cycle 72" style="text;html=1;align=center;verticalAlign=middle;whiteSpace=wrap;rounded=0;" vertex="1" parent="1">
          <mxGeometry x="-180" y="741" width="60" height="20" as="geometry" />
        </mxCell>
      </root>
    </mxGraphModel>
  </diagram>
</mxfile>
